<svg xmlns="http://www.w3.org/2000/svg" viewBox="0 0 1040 650" role="img" aria-label="SRE / observability / AIOps"><title>SRE / observability / AIOps</title><desc>Measure user journeys, reduce operational toil and learn from failures.. Arrows show flow; dashed lines show feedback or cross-cutting controls.</desc><defs><marker id="arrow" markerWidth="9" markerHeight="9" refX="7" refY="4" orient="auto"><path d="M0 0L8 4L0 8" fill="#34717e"/></marker><style>text{font-family:Arial,sans-serif}.title{font-size:24px;font-weight:700;fill:#12283e}.sub{font-size:14px;fill:#41546a}.label{font-size:17px;font-weight:700;fill:#12283e}.detail{font-size:13px;fill:#41546a}.edge{fill:none;stroke:#34717e;stroke-width:2.5;marker-end:url(#arrow)}.lane{font-size:12px;font-weight:700;letter-spacing:1px;fill:#34576f}</style></defs><rect width="1040" height="650" rx="18" fill="#f5f8fc"/><text x="30" y="40" class="title">SRE / observability / AIOps</text><text x="30" y="67" class="sub">Measure user journeys, reduce operational toil and learn from failures.</text><rect x="20" y="100" width="1000" height="135" rx="12" fill="#e6eef6" stroke="#bacbdc" stroke-dasharray="6 5"/><text x="36" y="122" class="lane">FOUNDATION / INPUTS</text><rect x="20" y="275" width="1000" height="135" rx="12" fill="#e6eef6" stroke="#bacbdc" stroke-dasharray="6 5"/><text x="36" y="297" class="lane">SERVICES / WORKFLOW</text><rect x="20" y="450" width="1000" height="135" rx="12" fill="#e6eef6" stroke="#bacbdc" stroke-dasharray="6 5"/><text x="36" y="472" class="lane">CONTROLS / OPERATIONS</text><path d="M315 180 H385" class="edge"/><path d="M655 180 H725" class="edge"/><path d="M860 225 V267.5 H180 V310" class="edge"/><path d="M315 355 H385" class="edge"/><path d="M655 355 H725" class="edge"/><path d="M860 400 V442.5 H180 V485" class="edge"/><path d="M315 530 H385" class="edge"/><path d="M655 530 H725" class="edge"/><rect x="45" y="135" width="270" height="90" rx="10" fill="white" stroke="#a7bed2" stroke-width="1.5"/><rect x="45" y="135" width="5" height="90" rx="2" fill="#087f8c"/><text x="61" y="167" class="label" style="font-size:17.0px">Service objectives</text><text x="61" y="193" class="detail">User journey · SLIs · SLOs · SLA</text><rect x="385" y="135" width="270" height="90" rx="10" fill="white" stroke="#a7bed2" stroke-width="1.5"/><rect x="385" y="135" width="5" height="90" rx="2" fill="#087f8c"/><text x="401" y="167" class="label" style="font-size:17.0px">Telemetry pipeline</text><text x="401" y="193" class="detail">OpenTelemetry · metrics / logs /</text><text x="401" y="210" class="detail">traces</text><rect x="725" y="135" width="270" height="90" rx="10" fill="white" stroke="#a7bed2" stroke-width="1.5"/><rect x="725" y="135" width="5" height="90" rx="2" fill="#087f8c"/><text x="741" y="167" class="label" style="font-size:17.0px">Service signals</text><text x="741" y="193" class="detail">RED · USE · golden signals</text><rect x="45" y="310" width="270" height="90" rx="10" fill="white" stroke="#a7bed2" stroke-width="1.5"/><rect x="45" y="310" width="5" height="90" rx="2" fill="#087f8c"/><text x="61" y="342" class="label" style="font-size:17.0px">Detect &amp; prioritize</text><text x="61" y="368" class="detail">Burn rate · symptoms · correlation</text><rect x="385" y="310" width="270" height="90" rx="10" fill="white" stroke="#a7bed2" stroke-width="1.5"/><rect x="385" y="310" width="5" height="90" rx="2" fill="#087f8c"/><text x="401" y="342" class="label" style="font-size:17.0px">Incident response</text><text x="401" y="368" class="detail">On-call · command · runbooks</text><rect x="725" y="310" width="270" height="90" rx="10" fill="white" stroke="#a7bed2" stroke-width="1.5"/><rect x="725" y="310" width="5" height="90" rx="2" fill="#087f8c"/><text x="741" y="342" class="label" style="font-size:17.0px">Restore &amp; validate</text><text x="741" y="368" class="detail">Rollback · failover · user</text><text x="741" y="385" class="detail">verification</text><rect x="45" y="485" width="270" height="90" rx="10" fill="white" stroke="#a7bed2" stroke-width="1.5"/><rect x="45" y="485" width="5" height="90" rx="2" fill="#087f8c"/><text x="61" y="517" class="label" style="font-size:17.0px">AIOps assistance</text><text x="61" y="543" class="detail">Anomaly / grouping · human oversight</text><rect x="385" y="485" width="270" height="90" rx="10" fill="white" stroke="#a7bed2" stroke-width="1.5"/><rect x="385" y="485" width="5" height="90" rx="2" fill="#087f8c"/><text x="401" y="517" class="label" style="font-size:17.0px">Capacity &amp; resilience</text><text x="401" y="543" class="detail">Load / soak · chaos · saturation</text><rect x="725" y="485" width="270" height="90" rx="10" fill="white" stroke="#a7bed2" stroke-width="1.5"/><rect x="725" y="485" width="5" height="90" rx="2" fill="#087f8c"/><text x="741" y="517" class="label" style="font-size:17.0px">Improvement loop</text><text x="741" y="543" class="detail">Postmortem · error budget · toil</text><text x="30" y="627" class="sub">Representative pattern • Services selected by workload • Client topology withheld</text></svg>