<svg xmlns="http://www.w3.org/2000/svg" viewBox="0 0 1040 650" role="img" aria-label="The delivery lifecycle"><title>The delivery lifecycle</title><desc>Business decisions, engineering evidence and operational ownership at each stage.. Arrows show flow; dashed lines show feedback or cross-cutting controls.</desc><defs><marker id="arrow" markerWidth="9" markerHeight="9" refX="7" refY="4" orient="auto"><path d="M0 0L8 4L0 8" fill="#34717e"/></marker><style>text{font-family:Arial,sans-serif}.title{font-size:24px;font-weight:700;fill:#12283e}.sub{font-size:14px;fill:#41546a}.label{font-size:17px;font-weight:700;fill:#12283e}.detail{font-size:13px;fill:#41546a}.edge{fill:none;stroke:#34717e;stroke-width:2.5;marker-end:url(#arrow)}.lane{font-size:12px;font-weight:700;letter-spacing:1px;fill:#34576f}</style></defs><rect width="1040" height="650" rx="18" fill="#f5f8fc"/><text x="30" y="40" class="title">The delivery lifecycle</text><text x="30" y="67" class="sub">Business decisions, engineering evidence and operational ownership at each stage.</text><path d="M315 180 H385" class="edge"/><path d="M655 180 H725" class="edge"/><path d="M860 225 V310" class="edge"/><path d="M725 355 H655" class="edge"/><path d="M385 355 H315" class="edge"/><path d="M180 400 V485" class="edge"/><path d="M315 530 H385" class="edge"/><path d="M655 530 H725" class="edge"/><rect x="45" y="135" width="270" height="90" rx="10" fill="white" stroke="#a7bed2" stroke-width="1.5"/><rect x="45" y="135" width="5" height="90" rx="2" fill="#087f8c"/><text x="61" y="167" class="label" style="font-size:17.0px">Discovery</text><text x="61" y="193" class="detail">Needs · current state · stakeholders</text><rect x="385" y="135" width="270" height="90" rx="10" fill="white" stroke="#a7bed2" stroke-width="1.5"/><rect x="385" y="135" width="5" height="90" rx="2" fill="#087f8c"/><text x="401" y="167" class="label" style="font-size:17.0px">Scope &amp; SOW</text><text x="401" y="193" class="detail">Deliverables · costs · acceptance</text><rect x="725" y="135" width="270" height="90" rx="10" fill="white" stroke="#a7bed2" stroke-width="1.5"/><rect x="725" y="135" width="5" height="90" rx="2" fill="#087f8c"/><text x="741" y="167" class="label" style="font-size:17.0px">Architecture</text><text x="741" y="193" class="detail">Options · threat model · decisions</text><rect x="725" y="310" width="270" height="90" rx="10" fill="white" stroke="#a7bed2" stroke-width="1.5"/><rect x="725" y="310" width="5" height="90" rx="2" fill="#087f8c"/><text x="741" y="342" class="label" style="font-size:17.0px">Prototype / POC</text><text x="741" y="368" class="detail">Prove feasibility · reduce uncertainty</text><rect x="385" y="310" width="270" height="90" rx="10" fill="white" stroke="#a7bed2" stroke-width="1.5"/><rect x="385" y="310" width="5" height="90" rx="2" fill="#087f8c"/><text x="401" y="342" class="label" style="font-size:17.0px">MVP</text><text x="401" y="368" class="detail">Working end-to-end user journey</text><rect x="45" y="310" width="270" height="90" rx="10" fill="white" stroke="#a7bed2" stroke-width="1.5"/><rect x="45" y="310" width="5" height="90" rx="2" fill="#087f8c"/><text x="61" y="342" class="label" style="font-size:17.0px">Pilot &amp; acceptance</text><text x="61" y="368" class="detail">User validation · security · recovery</text><rect x="45" y="485" width="270" height="90" rx="10" fill="white" stroke="#a7bed2" stroke-width="1.5"/><rect x="45" y="485" width="5" height="90" rx="2" fill="#087f8c"/><text x="61" y="517" class="label" style="font-size:17.0px">Production release</text><text x="61" y="543" class="detail">Cutover · rollback · monitoring</text><rect x="385" y="485" width="270" height="90" rx="10" fill="white" stroke="#a7bed2" stroke-width="1.5"/><rect x="385" y="485" width="5" height="90" rx="2" fill="#087f8c"/><text x="401" y="517" class="label" style="font-size:17.0px">Operate &amp; hand over</text><text x="401" y="543" class="detail">SOP · runbooks · ownership · training</text><rect x="725" y="485" width="270" height="90" rx="10" fill="white" stroke="#a7bed2" stroke-width="1.5"/><rect x="725" y="485" width="5" height="90" rx="2" fill="#087f8c"/><text x="741" y="517" class="label" style="font-size:17.0px">Improve</text><text x="741" y="543" class="detail">Outcomes · cost · feedback · roadmap</text><text x="30" y="627" class="sub">Representative pattern • Services selected by workload • Client topology withheld</text></svg>